HIERARCHY
ROOT Hips
{
 OFFSET 0.000000 0.000000 0.000000
 CHANNELS 6 Xposition Yposition Zposition Yrotation Xrotation Zrotation
 JOINT Chest
 {
  OFFSET 0.000000 9.585900 0.002600
  CHANNELS 3 Yrotation Xrotation Zrotation
  JOINT Chest2
  {
   OFFSET 0.000000 9.601200 -0.005300
   CHANNELS 3 Yrotation Xrotation Zrotation
   JOINT Chest3
   {
    OFFSET 0.000000 9.561800 0.000000
    CHANNELS 3 Yrotation Xrotation Zrotation
    JOINT Chest4
    {
     OFFSET 0.000000 9.552100 0.000000
     CHANNELS 3 Yrotation Xrotation Zrotation
     JOINT Neck
     {
      OFFSET 0.000000 14.453000 0.000000
      CHANNELS 3 Yrotation Xrotation Zrotation
      JOINT Head
      {
       OFFSET 0.000000 8.936500 -0.011300
       CHANNELS 3 Yrotation Xrotation Zrotation
       End Site
       {
        OFFSET 0.000000 17.073600 -0.006000
       }
      }
     }
     JOINT RightCollar
     {
      OFFSET -2.921100 9.558500 0.000000
      CHANNELS 3 Yrotation Xrotation Zrotation
      JOINT RightShoulder
      {
       OFFSET -13.519700 0.000000 0.000000
       CHANNELS 3 Yrotation Xrotation Zrotation
       JOINT RightElbow
       {
        OFFSET 0.000000 -29.696600 0.000000
        CHANNELS 3 Yrotation Xrotation Zrotation
        JOINT RightWrist
        {
         OFFSET 0.000000 -24.004700 0.000000
         CHANNELS 3 Yrotation Xrotation Zrotation
         End Site
         {
          OFFSET 0.000000 -17.728500 0.000000
         }
        }
       }
      }
     }
     JOINT LeftCollar
     {
      OFFSET 2.921100 9.558500 0.000000
      CHANNELS 3 Yrotation Xrotation Zrotation
      JOINT LeftShoulder
      {
       OFFSET 13.519700 0.000000 0.000000
       CHANNELS 3 Yrotation Xrotation Zrotation
       JOINT LeftElbow
       {
        OFFSET 0.000000 -29.696600 0.000000
        CHANNELS 3 Yrotation Xrotation Zrotation
        JOINT LeftWrist
        {
         OFFSET 0.000000 -24.004700 0.000000
         CHANNELS 3 Yrotation Xrotation Zrotation
         End Site
         {
          OFFSET 0.000000 -17.728500 0.000000
         }
        }
       }
      }
     }
    }
   }
  }
 }
 JOINT RightHip
 {
  OFFSET -7.771700 -0.012900 -0.001300
  CHANNELS 3 Yrotation Xrotation Zrotation
  JOINT RightKnee
  {
   OFFSET 0.000000 -40.869800 0.001200
   CHANNELS 3 Yrotation Xrotation Zrotation
   JOINT RightAnkle
   {
    OFFSET 0.000000 -39.717900 0.002100
    CHANNELS 3 Yrotation Xrotation Zrotation
    JOINT RightToe
    {
     OFFSET 0.000000 -4.965400 11.033500
     CHANNELS 3 Yrotation Xrotation Zrotation
     End Site
     {
      OFFSET 0.000000 -1.423100 5.872300
     }
    }
   }
  }
 }
 JOINT LeftHip
 {
  OFFSET 7.771700 -0.012900 -0.001300
  CHANNELS 3 Yrotation Xrotation Zrotation
  JOINT LeftKnee
  {
   OFFSET 0.000000 -40.869800 0.001200
   CHANNELS 3 Yrotation Xrotation Zrotation
   JOINT LeftAnkle
   {
    OFFSET 0.000000 -39.717900 0.002100
    CHANNELS 3 Yrotation Xrotation Zrotation
    JOINT LeftToe
    {
     OFFSET 0.000000 -4.965400 11.033500
     CHANNELS 3 Yrotation Xrotation Zrotation
     End Site
     {
      OFFSET 0.000000 -1.423100 5.872300
     }
    }
   }
  }
 }
}
MOTION
Frames: 5
Frame Time: 0.008333
0.000000 85.388000 0.000000 0.000000 -5.767877 0.000000 0.000000 11.653817 0.000000 0.000000 -5.885947 0.000000 0.000000 -0.000000 0.000000 0.000000 -0.000000 0.000000 0.000000 12.528835 0.000000 0.000000 0.711642 0.000000 0.000000 -0.000000 0.000000 0.000000 0.000000 -90.000000 0.000000 -2.309062 0.000000 0.000000 2.309062 0.000000 0.000000 -0.000000 0.000000 0.000000 -0.000000 90.000000 0.000000 -2.309062 0.000000 0.000000 2.309062 0.000000 0.000000 8.520406 0.000000 0.000000 1.905762 0.000000 -0.000000 -4.658285 0.000000 0.000000 -0.000000 0.000000 0.000000 8.520406 0.000000 0.000000 1.905762 0.000000 -0.000000 -4.658285 0.000000 0.000000 -0.000000 0.000000
-91.947127 62.135617 18.228317 173.090111 -48.907328 -0.960086 5.044913 26.663200 1.690444 0.726374 4.520625 0.231635 1.185660 7.200313 0.385193 3.797142 21.597325 1.711807 2.731323 13.139903 3.210399 3.903123 -11.394607 4.952215 5.598231 1.716478 4.407955 10.997849 -23.975176 -15.578124 -167.117650 -65.190538 -170.566150 17.854474 -1.153334 -17.423894 -9.875157 -3.338348 0.502757 -20.338473 -15.630963 18.890938 91.893079 -62.508083 -124.028791 13.942576 -2.575151 28.785259 2.910326 -18.402971 -3.417323 -1.721178 60.710306 -5.015623 2.292449 -6.359719 9.960294 0.214592 -0.523317 0.075046 -3.981577 -14.323638 4.735333 31.286119 75.569125 33.634114 1.621326 -11.798835 -6.127955 0.365139 0.813843 0.167515
-91.948118 62.138796 18.230973 173.085399 -48.950500 -0.968522 5.045881 26.686765 1.705560 0.725446 4.522064 0.232534 1.171308 7.183099 0.391421 3.801236 21.617894 1.709816 2.684757 13.150082 3.179813 3.839052 -11.362298 4.887457 5.578732 1.732978 4.403240 10.748430 -23.846740 -15.587388 -166.149540 -64.991520 -171.433997 17.883829 -1.093415 -16.291273 -9.854539 -3.342212 0.497890 -20.201432 -15.427491 18.914595 92.415785 -62.475203 -124.556437 13.899073 -2.158237 28.457878 2.898733 -18.355664 -3.407079 -1.701467 60.697763 -4.998401 2.297518 -6.357489 9.961698 0.208128 -0.529622 0.074024 -3.979743 -14.278966 4.741892 31.278274 75.566986 33.630802 1.628484 -11.788349 -6.134984 0.364007 0.807024 0.170104
-91.950843 62.140675 18.235166 173.071666 -48.985637 -0.963029 5.049443 26.704671 1.712304 0.724739 4.523662 0.233375 1.148215 7.158883 0.405373 3.789841 21.626215 1.729411 2.664198 13.184738 3.114984 3.760718 -11.336560 4.821896 5.598289 1.772679 4.357068 10.457455 -23.712120 -15.591606 -165.275810 -64.768265 -172.214477 17.963845 -1.023837 -15.136850 -9.811833 -3.319311 0.452582 -20.073483 -15.218727 18.936620 92.939513 -62.454820 -125.053567 13.823482 -1.748765 28.071390 2.896620 -18.318055 -3.408766 -1.699506 60.683067 -4.990887 2.310934 -6.353548 9.955746 0.204827 -0.533026 0.077800 -3.969477 -14.242427 4.738853 31.247671 75.565399 33.603413 1.641890 -11.781702 -6.119172 0.353891 0.805683 0.153782
-91.951906 62.142216 18.240217 173.051228 -49.019159 -0.964060 5.053998 26.710285 1.729201 0.724109 4.527240 0.235654 1.159747 7.177737 0.401169 3.782393 21.621032 1.746024 2.655102 13.195909 3.087379 3.656908 -11.316948 4.757036 5.556308 1.801549 4.346769 10.194608 -23.576900 -15.609131 -164.553343 -64.514034 -172.857896 18.092835 -0.950929 -13.966546 -9.791819 -3.299161 0.437004 -19.946929 -15.006283 18.959555 93.456034 -62.454606 -125.541346 13.710774 -1.350858 27.634818 2.897247 -18.281572 -3.400352 -1.707558 60.663779 -4.982960 2.319241 -6.348760 9.946299 0.214039 -0.526843 0.077299 -3.956781 -14.205130 4.748346 31.220390 75.561458 33.583326 1.655625 -11.781168 -6.117345 0.341097 0.810810 0.148535
